<?xml version="1.0" standalone="no"?>
<!DOCTYPE svg PUBLIC "-//W3C//DTD SVG 20010904//EN"
 "http://www.w3.org/TR/2001/REC-SVG-20010904/DTD/svg10.dtd">
<svg version="1.0" xmlns="http://www.w3.org/2000/svg"
 width="1024.000000pt" height="1024.000000pt" viewBox="0 0 1024.000000 1024.000000"
 preserveAspectRatio="xMidYMid meet">

<g transform="translate(0.000000,1024.000000) scale(0.100000,-0.100000)"
fill="#000000" stroke="none">
<path d="M0 5120 l0 -5120 5120 0 5120 0 0 5120 0 5120 -5120 0 -5120 0 0
-5120z m6905 3186 c263 -80 442 -256 512 -506 17 -62 18 -156 18 -1870 l0
-1805 -23 -79 c-39 -134 -95 -230 -192 -326 -95 -96 -177 -143 -316 -182 l-79
-23 -1625 -3 c-988 -1 -1659 1 -1711 7 -257 29 -451 162 -559 386 -71 145 -80
206 -83 514 l-2 256 128 3 127 3 0 -228 c0 -320 22 -408 132 -528 59 -65 114
-100 199 -126 59 -18 123 -19 1709 -19 1586 0 1650 1 1709 19 161 50 271 172
307 340 11 55 14 347 14 1791 0 1127 -4 1740 -11 1769 -40 175 -202 321 -389
351 -94 14 -3211 14 -3282 -1 -89 -19 -177 -67 -244 -133 -114 -114 -144 -205
-144 -438 l0 -158 -130 0 -130 0 0 138 c0 182 15 299 49 400 40 115 84 184
173 274 63 63 96 86 170 122 165 80 30 75 1923 73 1599 -2 1693 -4 1750 -21z
m-192 -725 c90 -44 82 123 82 -1686 0 -1790 7 -1639 -75 -1685 l-45 -25 -1355
0 c-1349 0 -1355 0 -1390 21 -19 11 -45 35 -57 54 l-23 33 0 1603 c0 1190 3
1610 12 1628 13 31 48 55 103 72 32 10 318 12 1370 11 l1330 -2 48 -24z
m-3337 -357 c51 -24 77 -68 82 -136 4 -50 1 -64 -21 -97 -46 -69 -48 -69 -462
-72 -422 -3 -425 -2 -470 76 -38 64 -31 140 18 194 45 49 57 50 450 51 320 0
373 -2 403 -16z m-276 -681 l0 -293 -128 0 -129 0 -1 286 c-1 158 0 289 2 293
2 3 61 6 130 6 l126 0 0 -292z m280 -399 c19 -11 45 -36 58 -55 20 -28 23 -44
20 -94 -4 -69 -24 -103 -79 -134 -35 -20 -51 -21 -409 -21 -361 0 -373 1 -410
21 -129 73 -94 263 54 300 17 4 189 7 381 6 333 -2 352 -3 385 -23z m-280
-687 l0 -298 -127 3 -128 3 0 290 c0 160 0 292 1 295 1 3 59 5 128 5 l126 0 0
-298z m277 -393 c120 -57 107 -245 -20 -293 -17 -7 -165 -11 -399 -11 l-371
-1 -37 25 c-100 66 -90 215 19 273 44 23 46 23 409 23 317 0 368 -2 399 -16z"/>
<path d="M3965 7585 c-32 -8 -59 -24 -77 -44 l-28 -31 0 -1603 c0 -1801 -7
-1649 75 -1691 40 -21 45 -21 1385 -21 1325 0 1346 0 1384 20 22 11 49 33 60
48 l21 28 0 1604 c-1 1596 -1 1605 -21 1632 -11 16 -38 37 -60 48 -38 20 -62
20 -1364 22 -1070 1 -1335 -1 -1375 -12z m905 -680 c16 -9 32 -25 35 -38 3
-12 6 -310 8 -662 2 -717 -1 -679 77 -783 153 -203 481 -197 625 12 69 101 67
80 72 796 4 626 5 646 24 665 18 19 35 20 244 23 243 3 278 -3 290 -51 3 -12
4 -330 3 -707 -4 -679 -4 -686 -26 -759 -101 -330 -317 -543 -659 -648 -82
-25 -101 -27 -268 -27 -195 -1 -232 6 -386 65 -79 31 -179 90 -237 141 -18 15
-39 25 -45 22 -7 -4 -9 -4 -5 0 3 4 -23 42 -58 84 -78 93 -164 259 -196 382
-21 83 -22 102 -25 754 -2 369 -2 680 2 693 11 46 43 52 278 53 176 0 224 -3
247 -15z"/>
<path d="M2566 7207 c-97 -55 -101 -192 -7 -254 34 -23 36 -23 410 -23 358 0
378 1 409 20 92 56 97 197 8 256 -14 9 -33 14 -41 10 -9 -3 -13 -2 -10 4 4 7
-122 10 -362 10 -362 0 -369 -1 -407 -23z"/>
<path d="M2743 6150 c-142 -4 -165 -7 -189 -25 -85 -64 -83 -194 5 -252 34
-23 36 -23 405 -23 342 0 374 1 406 19 57 30 75 63 75 136 0 59 -3 67 -33 98
-20 21 -51 39 -75 46 -42 10 -274 11 -594 1z"/>
<path d="M2602 5063 c-12 -3 -40 -21 -61 -41 -66 -63 -68 -152 -5 -213 l35
-34 392 0 392 0 32 24 c87 65 82 195 -9 251 -31 19 -50 20 -393 19 -198 -1
-370 -4 -383 -6z"/>
</g>
</svg>
